<svg width="218" height="48" viewBox="0 0 218 48" fill="none" xmlns="http://www.w3.org/2000/svg">
<path d="M41.397 46.0232C43.8836 46.0232 45.0649 44.7776 45.0649 41.9977V35.0326C45.0649 32.2528 43.8836 31.0071 41.397 31.0071H31.2629C28.7763 31.0071 27.595 32.2528 27.595 35.0326V41.9977C27.595 44.7776 28.7763 46.0232 31.2629 46.0232H41.397ZM33.9366 43.6593C33.2219 43.6593 33.004 43.3715 33.004 42.5726V34.4577C33.004 33.6588 33.2219 33.371 33.9366 33.371H38.7234C39.4387 33.371 39.6559 33.6588 39.6559 34.4577V42.5726C39.6559 43.3715 39.4387 43.6593 38.7234 43.6593H33.9366Z" fill="#0095DA"/>
<path d="M13.8013 24.1804C16.2879 24.1804 17.4692 22.934 17.4692 20.1549V13.1898C17.4692 10.41 16.2879 9.16357 13.8013 9.16357H3.66719C1.1806 9.16357 0 10.41 0 13.1898V20.1549C0 22.934 1.1806 24.1804 3.66719 24.1804H13.8013ZM6.34084 21.8165C5.62618 21.8165 5.40829 21.5287 5.40829 20.7298V12.6142C5.40829 11.816 5.62618 11.5282 6.34084 11.5282H11.1283C11.843 11.5282 12.0609 11.816 12.0609 12.6142V20.7298C12.0609 21.5287 11.843 21.8165 11.1283 21.8165H6.34084Z" fill="#0095DA"/>
<path d="M42.1403 21.751C45.7424 21.751 47.4534 19.9462 47.4534 15.9199V5.83106C47.4534 1.8055 45.7424 0 42.1403 0H27.462C23.8599 0 22.1489 1.8055 22.1489 5.83106V15.9199C22.1489 19.9462 23.8599 21.751 27.462 21.751H42.1403ZM31.3347 18.3264C30.2987 18.3264 29.9842 17.9105 29.9842 16.7531V4.99854C29.9842 3.84123 30.2987 3.42463 31.3347 3.42463H38.2683C39.3043 3.42463 39.6195 3.84123 39.6195 4.99854V16.7531C39.6195 17.9105 39.3043 18.3264 38.2683 18.3264H31.3347Z" fill="#00508F"/>
<path d="M27.6065 35.1348C30.0938 35.1348 31.275 33.8891 31.275 31.1092V24.1442C31.275 21.3643 30.0938 20.1179 27.6065 20.1179H17.4731C14.9865 20.1179 13.8052 21.3643 13.8052 24.1442V31.1092C13.8052 33.8891 14.9865 35.1348 17.4731 35.1348H27.6065ZM20.1467 32.7708C19.4314 32.7708 19.2141 32.483 19.2141 31.6841V23.5693C19.2141 22.7703 19.4314 22.4825 20.1467 22.4825H24.9335C25.6489 22.4825 25.8661 22.7703 25.8661 23.5693V31.6841C25.8661 32.483 25.6489 32.7708 24.9335 32.7708H20.1467Z" fill="#0095DA"/>
<path d="M14.7608 39.2891C16.1326 39.2891 16.7842 38.6018 16.7842 37.0684V33.2271C16.7842 31.6936 16.1326 31.0071 14.7608 31.0071H9.17164C7.80055 31.0071 7.14893 31.6936 7.14893 33.2271V37.0684C7.14893 38.6018 7.80055 39.2891 9.17164 39.2891H14.7608ZM10.6462 37.9852C10.2522 37.9852 10.1323 37.8262 10.1323 37.3856V32.9099C10.1323 32.4693 10.2522 32.311 10.6462 32.311H13.2869C13.6809 32.311 13.8008 32.4693 13.8008 32.9099V37.3856C13.8008 37.8262 13.6809 37.9852 13.2869 37.9852H10.6462Z" fill="#00508F"/>
<path d="M214.159 35.128C216.718 35.128 217.933 33.8789 217.933 31.0915V24.1079C217.933 21.3205 216.718 20.0714 214.159 20.0714H203.734C201.176 20.0714 199.961 21.3205 199.961 24.1079V31.0915C199.961 33.8789 201.176 35.128 203.734 35.128H214.159ZM206.484 32.7572C205.749 32.7572 205.525 32.4694 205.525 31.6684V23.531C205.525 22.73 205.749 22.4415 206.484 22.4415H211.409C212.145 22.4415 212.368 22.73 212.368 23.531V31.6684C212.368 32.4694 212.145 32.7572 211.409 32.7572H206.484ZM196.922 14.6248H191.038C191.23 15.3298 191.358 16.2268 191.358 18.0206V31.7328C191.358 33.5267 191.23 34.4236 191.038 35.128H197.243C197.05 34.4236 196.922 33.5267 196.922 31.7328V14.6248ZM188.32 28.977V24.1079C188.32 21.3205 187.105 20.0714 184.547 20.0714H174.121C171.563 20.0714 170.347 21.3205 170.347 24.1079V31.0915C170.347 33.8789 171.563 35.128 174.121 35.128H187.872L188.32 32.5653C187.648 32.6935 187.041 32.7572 186.561 32.7572H176.872C176.136 32.7572 175.912 32.4694 175.912 31.6684V28.977H188.32ZM175.912 26.6068V23.531C175.912 22.73 176.136 22.4415 176.872 22.4415H181.796C182.532 22.4415 182.756 22.73 182.756 23.531V26.6068H175.912ZM162.321 35.128L168.045 23.0822C168.941 21.1602 169.325 20.5517 169.804 20.0714H166.383C166.415 20.2311 166.447 20.3914 166.447 20.5839C166.51 21.3205 164.272 25.453 161.234 32.1172C156.757 22.6341 155.99 21.4165 155.99 20.5195C155.99 20.2955 156.021 20.1673 156.021 20.0714H149.173C149.817 20.4873 152.599 26.4143 154.454 30.3227L156.757 35.128H162.321ZM148.634 28.977V24.1079C148.634 21.3205 147.419 20.0714 144.86 20.0714H134.435C131.877 20.0714 130.662 21.3205 130.662 24.1079V31.0915C130.662 33.8789 131.877 35.128 134.435 35.128H148.186L148.634 32.5653C147.963 32.6935 147.355 32.7572 146.875 32.7572H137.185C136.45 32.7572 136.226 32.4694 136.226 31.6684V28.977H148.634ZM136.226 26.6068V23.531C136.226 22.73 136.45 22.4415 137.185 22.4415H142.111C142.846 22.4415 143.069 22.73 143.069 23.531V26.6068H136.226ZM113.904 17.2518H117.565C120.421 17.2518 122.155 18.5126 122.155 22.2969V31.284C122.155 32.2111 121.866 32.5016 121.004 32.5016H113.904V17.2518ZM107.892 32.3735C107.892 33.3026 107.829 34.1673 107.509 35.128H124.074C126.728 35.128 128.167 33.8145 128.167 30.9634V18.7894C128.167 15.9383 126.728 14.6248 124.074 14.6248H107.509C107.829 15.5861 107.892 16.4508 107.892 17.3799V32.3735Z" fill="#00508F"/>
<path d="M104.436 14.6248H98.552C98.7442 15.3298 98.8721 16.2268 98.8721 18.0206V31.7328C98.8721 33.5267 98.7442 34.4236 98.552 35.128H104.756C104.564 34.4236 104.436 33.5267 104.436 31.7328V14.6248ZM92.0605 35.128C94.6185 35.128 95.8339 33.8789 95.8339 31.0915V24.1079C95.8339 21.3205 94.6185 20.0714 92.0605 20.0714H81.6354C79.0767 20.0714 77.862 21.3205 77.862 24.1079V31.0915C77.862 33.8789 79.0767 35.128 81.6354 35.128H92.0605ZM84.3857 32.7572C83.6497 32.7572 83.426 32.4694 83.426 31.6684V23.531C83.426 22.73 83.6497 22.4415 84.3857 22.4415H89.3095C90.0455 22.4415 90.2698 22.73 90.2698 23.531V31.6684C90.2698 32.4694 90.0455 32.7572 89.3095 32.7572H84.3857ZM75.4633 25.8374C75.4633 22.9862 74.0242 21.6727 71.3697 21.6727H63.7271C62.8632 21.6727 62.5753 21.3849 62.5753 20.4558V18.4694C62.5753 17.5403 62.8632 17.2518 63.7271 17.2518H72.1693C73.0646 17.2518 74.3758 17.3155 75.3354 17.7321L74.8238 14.6248H60.8482C58.1944 14.6248 56.7554 15.9383 56.7554 18.7894V23.211C56.7554 26.0614 58.1944 27.3756 60.8482 27.3756H68.4916C69.3554 27.3756 69.6434 27.6634 69.6434 28.5926V31.284C69.6434 32.2132 69.3554 32.5016 68.4916 32.5016H60.0815C59.1855 32.5016 57.8743 32.4372 56.9154 32.0206L57.427 35.128H71.3697C74.0242 35.128 75.4633 33.8145 75.4633 30.9634V25.8374Z" fill="#0095DA"/>
<path d="M58.1585 42.8498C57.7734 42.8498 57.6851 42.7395 57.6851 42.2763V41.9234C57.6851 41.4609 57.7734 41.3506 58.1585 41.3506H61.1077C61.6139 41.3506 61.8998 41.3725 62.2082 41.4499L62.1091 40.8435H58.1037C57.1134 40.8435 56.7611 41.1518 56.7611 42.1886V42.4085C56.7611 43.4452 57.1134 43.7536 58.1037 43.7536H60.8984C61.2842 43.7536 61.3717 43.8639 61.3717 44.3271V44.9444C61.3717 45.4076 61.2842 45.5179 60.8984 45.5179H57.8726C57.3664 45.5179 57.0805 45.496 56.7721 45.4186L56.8493 46.025H60.9648C61.8895 46.025 62.2082 45.716 62.2082 45.1431V44.1948C62.2082 43.1581 61.856 42.8498 60.8656 42.8498H58.1585Z" fill="#0095DA"/>
<path d="M177.512 41.3235V40.8137H174.924V39.605L173.994 39.7825V40.8137H173.186V41.3235H173.994V44.6721C173.994 45.7074 174.348 46.0246 175.344 46.0246H177.701L177.779 45.4148C177.469 45.4929 177.174 45.5149 176.672 45.5149H175.399C175.019 45.5149 174.924 45.4039 174.924 44.9386V41.3235H177.512ZM166.678 44.916C166.678 45.4196 166.656 45.7142 166.578 46.0246H167.708C167.63 45.7142 167.608 45.4265 167.608 44.916V41.9004C167.608 41.4345 167.697 41.3235 168.084 41.3235H171.061C171.448 41.3235 171.537 41.4413 171.537 41.9004V44.916C171.537 45.4196 171.515 45.7142 171.437 46.0246H172.567C172.489 45.7142 172.467 45.4265 172.467 44.916V42.1663C172.467 41.1241 172.106 40.8137 171.117 40.8137H168.25C168.157 40.8137 168.048 40.8404 167.951 40.9021C167.867 40.9555 167.763 41.0576 167.674 41.1906H167.652V40.8137H166.578C166.656 41.1241 166.678 41.4187 166.678 41.9224V44.916ZM165.826 43.7409V42.1663C165.826 41.1241 165.465 40.8137 164.476 40.8137H161.344C160.354 40.8137 159.993 41.1309 159.993 42.1663V44.6721C159.993 45.7074 160.347 46.0246 161.344 46.0246H165.715L165.826 45.4148C165.516 45.4929 165.221 45.5149 164.719 45.5149H161.399C161.018 45.5149 160.923 45.4039 160.923 44.9386V43.7409H165.826ZM160.923 43.2304V41.9004C160.923 41.4345 161.012 41.3235 161.399 41.3235H164.421C164.808 41.3235 164.897 41.4413 164.897 41.9004V43.2304H160.923ZM149.357 40.8137C149.435 41.1241 149.457 41.4187 149.457 41.9224V44.916C149.457 45.4196 149.435 45.7142 149.357 46.0246H150.486C150.409 45.7142 150.387 45.4265 150.387 44.916V41.9004C150.387 41.4345 150.475 41.3235 150.863 41.3235H153.364C153.751 41.3235 153.84 41.4413 153.84 41.9004V44.916C153.84 45.4196 153.818 45.7142 153.74 46.0246H154.87C154.792 45.7142 154.77 45.4265 154.77 44.916V41.9004C154.77 41.4345 154.858 41.3235 155.245 41.3235H157.747C158.134 41.3235 158.223 41.4413 158.223 41.9004V44.916C158.223 45.4196 158.201 45.7142 158.123 46.0246H159.252C159.174 45.7142 159.152 45.4265 159.152 44.916V42.3883C159.152 41.1241 158.637 40.8137 157.382 40.8137H155.555C154.953 40.8137 154.87 40.9357 154.747 41.3235H154.725C154.614 40.9692 154.541 40.8137 153.829 40.8137H150.885C150.736 40.8137 150.639 40.8507 150.564 40.9137C150.501 40.9658 150.464 41.0686 150.409 41.1906H150.387V40.8137H149.357ZM142.894 46.8914C142.894 47.395 142.872 47.6897 142.795 48.0001H143.923C143.846 47.6897 143.823 47.4012 143.823 46.8914V45.6697H143.846C143.923 45.9363 144.211 46.0246 144.566 46.0246H147.288C148.251 46.0246 148.604 45.7142 148.604 44.6721V42.1663C148.604 41.1241 148.244 40.8137 147.221 40.8137H144.51C144.096 40.8137 143.823 40.9247 143.791 41.268H143.768L143.713 40.8137H142.795C142.872 41.1241 142.894 41.4187 142.894 41.9224V46.8914ZM143.823 41.9004C143.823 41.4345 143.912 41.3235 144.3 41.3235H147.2C147.587 41.3235 147.676 41.4413 147.676 41.9004V44.9386C147.676 45.397 147.58 45.5149 147.2 45.5149H144.3C143.919 45.5149 143.823 45.4039 143.823 44.9386V41.9004ZM140.636 41.3235C141.023 41.3235 141.112 41.4413 141.112 41.9004V44.9386C141.112 45.397 141.017 45.5149 140.636 45.5149H137.615C137.234 45.5149 137.139 45.4039 137.139 44.9386V41.9004C137.139 41.4345 137.227 41.3235 137.615 41.3235H140.636ZM142.042 42.1663C142.042 41.1241 141.681 40.8137 140.692 40.8137H137.56C136.57 40.8137 136.209 41.1309 136.209 42.1663V44.6721C136.209 45.7074 136.563 46.0246 137.56 46.0246H140.692C141.687 46.0246 142.042 45.7142 142.042 44.6721V42.1663ZM134.151 38.9287C134.228 39.2391 134.25 39.5344 134.25 40.0374V44.916C134.25 45.4196 134.228 45.7142 134.151 46.0246H135.279C135.202 45.7142 135.18 45.4265 135.18 44.916V38.9287H134.151ZM133.221 43.7409V42.1663C133.221 41.1241 132.86 40.8137 131.87 40.8137H128.739C127.749 40.8137 127.388 41.1309 127.388 42.1663V44.6721C127.388 45.7074 127.743 46.0246 128.739 46.0246H133.11L133.221 45.4148C132.911 45.4929 132.617 45.5149 132.114 45.5149H128.794C128.413 45.5149 128.318 45.4039 128.318 44.9386V43.7409H133.221ZM128.318 43.2304V41.9004C128.318 41.4345 128.407 41.3235 128.794 41.3235H131.815C132.203 41.3235 132.291 41.4413 132.291 41.9004V43.2304H128.318ZM120.425 40.8137C120.591 41.0686 120.705 41.2831 120.77 41.4126L123.105 46.0246H124.3L126.514 41.8113C126.648 41.5571 126.838 41.2817 127.145 40.9466L127.267 40.8137H126.248C126.215 41.0686 126.105 41.4167 125.894 41.8113L123.88 45.5813L121.854 41.59C121.772 41.4263 121.688 41.2015 121.611 40.8137H120.425ZM120.305 43.7409V42.1663C120.305 41.1241 119.944 40.8137 118.955 40.8137H115.822C114.833 40.8137 114.472 41.1309 114.472 42.1663V44.6721C114.472 45.7074 114.827 46.0246 115.822 46.0246H120.194L120.305 45.4148C119.995 45.4929 119.701 45.5149 119.199 45.5149H115.878C115.497 45.5149 115.402 45.4039 115.402 44.9386V43.7409H120.305ZM115.402 43.2304V41.9004C115.402 41.4345 115.491 41.3235 115.878 41.3235H118.899C119.287 41.3235 119.375 41.4413 119.375 41.9004V43.2304H115.402ZM112.613 38.9287C112.691 39.2391 112.712 39.5344 112.712 40.0374V41.368H112.691C112.613 41.0021 112.542 40.9117 112.425 40.8692C112.316 40.8301 112.152 40.8137 111.949 40.8137H109.26C108.27 40.8137 107.91 41.1309 107.91 42.1663V44.6721C107.91 45.7074 108.263 46.0246 109.26 46.0246H112.005C112.425 46.0246 112.691 45.9136 112.724 45.5704H112.746L112.812 46.0246H113.719C113.642 45.7142 113.62 45.4265 113.62 44.916V38.9287H112.613ZM112.691 44.9386C112.691 45.397 112.596 45.5149 112.215 45.5149H109.315C108.934 45.5149 108.838 45.4039 108.838 44.9386V41.9004C108.838 41.4345 108.927 41.3235 109.315 41.3235H112.215C112.602 41.3235 112.691 41.4413 112.691 41.9004V44.9386ZM100.374 42.8316C99.9865 42.8316 99.8976 42.7206 99.8976 42.2554V41.9004C99.8976 41.4345 99.9865 41.3235 100.374 41.3235H103.34C103.849 41.3235 104.137 41.3461 104.447 41.4235L104.347 40.8137H100.318C99.3224 40.8137 98.9681 41.1241 98.9681 42.1663V42.3883C98.9681 43.4305 99.3224 43.7409 100.318 43.7409H103.129C103.517 43.7409 103.605 43.8519 103.605 44.3171V44.9386C103.605 45.4039 103.517 45.5149 103.129 45.5149H100.086C99.5768 45.5149 99.2889 45.4929 98.9791 45.4148L99.057 46.0246H103.196C104.126 46.0246 104.447 45.7142 104.447 45.138V44.1842C104.447 43.142 104.092 42.8316 103.097 42.8316H100.374ZM92.361 44.916C92.361 45.4265 92.3391 45.7142 92.2611 46.0246H93.3903C93.3131 45.7142 93.2905 45.4265 93.2905 44.916V41.9004C93.2905 41.4345 93.3794 41.3235 93.7665 41.3235H96.7438C97.131 41.3235 97.2192 41.4345 97.2192 41.9004V44.916C97.2192 45.4265 97.1973 45.7142 97.12 46.0246H98.2493C98.1713 45.7142 98.1494 45.4265 98.1494 44.916V42.1663C98.1494 41.1241 97.7951 40.8137 96.7992 40.8137H93.9327C93.8329 40.8137 93.733 40.8363 93.6338 40.9021C93.5449 40.9576 93.4457 41.0576 93.3568 41.1906H93.3349V40.8137H92.2611C92.3391 41.1241 92.361 41.4126 92.361 41.9224V44.916ZM90.1032 41.3235C90.491 41.3235 90.5792 41.4345 90.5792 41.9004V44.9386C90.5792 45.4039 90.491 45.5149 90.1032 45.5149H87.0814C86.6943 45.5149 86.6054 45.4039 86.6054 44.9386V41.9004C86.6054 41.4345 86.6943 41.3235 87.0814 41.3235H90.1032ZM91.5087 42.1663C91.5087 41.1241 91.1545 40.8137 90.1586 40.8137H87.0267C86.0302 40.8137 85.6765 41.1241 85.6765 42.1663V44.6721C85.6765 45.7142 86.0302 46.0246 87.0267 46.0246H90.1586C91.1545 46.0246 91.5087 45.7142 91.5087 44.6721V42.1663ZM83.717 40.1703H84.6465V39.4166H83.717V40.1703ZM84.6465 40.8137H83.6178C83.6951 41.1241 83.717 41.4126 83.717 41.9224V44.916C83.717 45.4265 83.6951 45.7142 83.6178 46.0246H84.7463C84.6691 45.7142 84.6465 45.4265 84.6465 44.916V40.8137ZM82.6985 41.3235V40.8137H80.109V39.605L79.1795 39.7825V40.8137H78.3711V41.3235H79.1795V44.6721C79.1795 45.7142 79.5338 46.0246 80.5297 46.0246H82.8866L82.9639 45.4148C82.6541 45.4929 82.3668 45.5149 81.8579 45.5149H80.5844C80.1973 45.5149 80.109 45.4039 80.109 44.9386V41.3235H82.6985ZM71.8638 44.6721C71.8638 45.7142 72.2181 46.0246 73.2139 46.0246H76.1687C76.3349 46.0246 76.4676 45.9918 76.5565 45.9363C76.6557 45.8698 76.7111 45.7697 76.7446 45.6478H76.7665L76.8219 46.0246H77.7514C77.6741 45.7142 77.6522 45.4265 77.6522 44.916V40.8137H76.6228C76.7001 41.1241 76.722 41.4126 76.722 41.9224V44.9386C76.722 45.4039 76.6338 45.5149 76.2467 45.5149H73.2693C72.8815 45.5149 72.7933 45.4039 72.7933 44.9386V40.8137H71.7639C71.8412 41.1241 71.8638 41.4126 71.8638 41.9224V44.6721ZM69.6833 38.9287C69.7606 39.2391 69.7825 39.5276 69.7825 40.0374V44.916C69.7825 45.4265 69.7606 45.7142 69.6833 46.0246H70.8118C70.7346 45.7142 70.7127 45.4265 70.7127 44.916V38.9287H69.6833ZM67.3475 41.3235C67.7354 41.3235 67.8236 41.4345 67.8236 41.9004V44.9386C67.8236 45.4039 67.7354 45.5149 67.3475 45.5149H64.3265C63.9386 45.5149 63.8504 45.4039 63.8504 44.9386V41.9004C63.8504 41.4345 63.9386 41.3235 64.3265 41.3235H67.3475ZM68.7538 42.1663C68.7538 41.1241 68.3988 40.8137 67.4029 40.8137H64.2711C63.2745 40.8137 62.9209 41.1241 62.9209 42.1663V44.6721C62.9209 45.7142 63.2745 46.0246 64.2711 46.0246H67.4029C68.3988 46.0246 68.7538 45.7142 68.7538 44.6721V42.1663Z" fill="#0095DA"/>
</svg>
